<?xml version="1.0" encoding="UTF-8"?>
<!DOCTYPE svg PUBLIC "-//W3C//DTD SVG 1.1//EN" "http://www.w3.org/Graphics/SVG/1.1/DTD/svg11.dtd">
<!-- Creator: CorelDRAW 2020 (64-Bit) -->
<svg xmlns="http://www.w3.org/2000/svg" xml:space="preserve" width="215.9mm" height="279.4mm" version="1.1" style="shape-rendering:geometricPrecision; text-rendering:geometricPrecision; image-rendering:optimizeQuality; fill-rule:evenodd; clip-rule:evenodd"
viewBox="0 0 21590 27940"
 xmlns:xlink="http://www.w3.org/1999/xlink"
 xmlns:xodm="http://www.corel.com/coreldraw/odm/2003">
 <defs>
  <style type="text/css">
   <![CDATA[
    .fil131 {fill:#FEFEFE}
    .fil27 {fill:#F9FCFE}
    .fil26 {fill:#F6F8FB}
    .fil25 {fill:#F7F7F8}
    .fil132 {fill:#F7F5F5}
    .fil24 {fill:#F3F4F6}
    .fil133 {fill:#F3F4F4}
    .fil23 {fill:#F1F3F4}
    .fil22 {fill:#F1F1F3}
    .fil134 {fill:#F1F1F0}
    .fil21 {fill:#EEF0F3}
    .fil20 {fill:#EEEEF2}
    .fil135 {fill:#EEEEEF}
    .fil136 {fill:#EEEEEE}
    .fil19 {fill:#ECEDEF}
    .fil137 {fill:#ECEDEE}
    .fil138 {fill:#EDEBEA}
    .fil18 {fill:#E9ECEF}
    .fil17 {fill:#E9EAEC}
    .fil139 {fill:#EAEAEA}
    .fil140 {fill:#EAEAE9}
    .fil16 {fill:#E8E9EC}
    .fil141 {fill:#E8E7E8}
    .fil142 {fill:#E8E7E5}
    .fil15 {fill:#E4E7EB}
    .fil143 {fill:#E5E4E4}
    .fil14 {fill:#E2E5E9}
    .fil13 {fill:#E2E3E7}
    .fil144 {fill:#E2E3E4}
    .fil145 {fill:#E2E3E3}
    .fil12 {fill:#E0E3E7}
    .fil146 {fill:#E0E1E2}
    .fil147 {fill:#E0E1E0}
    .fil148 {fill:#E0DFDE}
    .fil11 {fill:#DDE0E6}
    .fil10 {fill:#DDE0E5}
    .fil149 {fill:#DDDEDE}
    .fil150 {fill:#DDDDDC}
    .fil9 {fill:#DBDDE3}
    .fil8 {fill:#DBDDE2}
    .fil151 {fill:#DBDBDB}
    .fil152 {fill:#DCDBD9}
    .fil7 {fill:#D8DCE1}
    .fil6 {fill:#D8DAE0}
    .fil153 {fill:#D9D8D8}
    .fil5 {fill:#D6D9E0}
    .fil4 {fill:#D6D8DF}
    .fil154 {fill:#D7D7D6}
    .fil155 {fill:#D7D5D5}
    .fil3 {fill:#D3D7DE}
    .fil156 {fill:#D4D4D4}
    .fil157 {fill:#D4D3D3}
    .fil2 {fill:#D1D6DE}
    .fil1 {fill:#D2D4DA}
    .fil158 {fill:#D2D2D3}
    .fil159 {fill:#D3D2D1}
    .fil0 {fill:#CFD3DA}
    .fil160 {fill:#D0D0D0}
    .fil28 {fill:#B74999}
    .fil30 {fill:#B44C9B}
    .fil29 {fill:#B44A9A}
    .fil31 {fill:#B04C9B}
    .fil32 {fill:#AE4C9B}
    .fil33 {fill:#AD4C9B}
    .fil34 {fill:#AB4E9C}
    .fil35 {fill:#A94E9C}
    .fil36 {fill:#A7509D}
    .fil94 {fill:#96D7DF}
    .fil37 {fill:#A4509D}
    .fil95 {fill:#93D6DF}
    .fil39 {fill:#A0529E}
    .fil38 {fill:#A1509D}
    .fil40 {fill:#9E529E}
    .fil41 {fill:#9D539F}
    .fil42 {fill:#9B539F}
    .fil43 {fill:#9A55A0}
    .fil44 {fill:#9855A0}
    .fil45 {fill:#9655A0}
    .fil46 {fill:#9456A1}
    .fil47 {fill:#9258A2}
    .fil48 {fill:#9158A2}
    .fil49 {fill:#8E59A2}
    .fil50 {fill:#8D59A2}
    .fil51 {fill:#8B5AA3}
    .fil52 {fill:#895AA3}
    .fil54 {fill:#875DA5}
    .fil53 {fill:#875CA5}
    .fil55 {fill:#865DA5}
    .fil56 {fill:#835FA6}
    .fil57 {fill:#8260A7}
    .fil58 {fill:#7F61A8}
    .fil59 {fill:#7D61A8}
    .fil61 {fill:#7B64AA}
    .fil60 {fill:#7B62A9}
    .fil62 {fill:#7865AB}
    .fil63 {fill:#7766AC}
    .fil64 {fill:#7468AD}
    .fil65 {fill:#716BAF}
    .fil67 {fill:#6E6DB1}
    .fil66 {fill:#6E6CB0}
    .fil68 {fill:#6C6EB2}
    .fil69 {fill:#696FB2}
    .fil71 {fill:#6572B5}
    .fil70 {fill:#6571B4}
    .fil73 {fill:#6275B7}
    .fil72 {fill:#6274B6}
    .fil75 {fill:#5D78B9}
    .fil74 {fill:#5E77B8}
    .fil79 {fill:#577FBF}
    .fil78 {fill:#597DBD}
    .fil77 {fill:#597BBC}
    .fil76 {fill:#5B79BA}
    .fil81 {fill:#5182C2}
    .fil80 {fill:#5281C1}
    .fil93 {fill:#3997D3}
    .fil92 {fill:#3B96D1}
    .fil91 {fill:#3D95D1}
    .fil90 {fill:#3F92CF}
    .fil89 {fill:#4191CD}
    .fil88 {fill:#448ECB}
    .fil87 {fill:#458DCB}
    .fil86 {fill:#488BC9}
    .fil85 {fill:#4989C7}
    .fil84 {fill:#4B87C5}
    .fil83 {fill:#4C85C4}
    .fil82 {fill:#4E83C2}
    .fil97 {fill:#683C8A}
    .fil96 {fill:#683C89}
    .fil98 {fill:#663C8A}
    .fil99 {fill:#643C8B}
    .fil100 {fill:#623C8C}
    .fil101 {fill:#613D8E}
    .fil103 {fill:#5F3D8E}
    .fil102 {fill:#5F3D8E}
    .fil104 {fill:#5D3D90}
    .fil105 {fill:#5D3E92}
    .fil108 {fill:#5A3E95}
    .fil107 {fill:#5A3E93}
    .fil106 {fill:#5B3E92}
    .fil109 {fill:#593E95}
    .fil110 {fill:#573E95}
    .fil113 {fill:#544196}
    .fil112 {fill:#554096}
    .fil111 {fill:#553E95}
    .fil116 {fill:#514398}
    .fil115 {fill:#524297}
    .fil114 {fill:#524196}
    .fil119 {fill:#4E4699}
    .fil118 {fill:#4E4599}
    .fil117 {fill:#4F4398}
    .fil130 {fill:#4454A2}
    .fil127 {fill:#47509F}
    .fil126 {fill:#474F9E}
    .fil125 {fill:#484E9E}
    .fil124 {fill:#494C9D}
    .fil123 {fill:#4A4B9C}
    .fil122 {fill:#4A4A9C}
    .fil121 {fill:#4B499B}
    .fil120 {fill:#4B489A}
    .fil129 {fill:#4253A1}
    .fil128 {fill:#4351A0}
   ]]>
  </style>
 </defs>
 <g id="Capa_x0020_1">
  <metadata id="CorelCorpID_0Corel-Layer"/>
  <g id="_1785059887344">
   <polygon class="fil0" points="1961.05,20956.21 2002.99,20979.63 1961.05,21003.69 "/>
   <polygon class="fil0" points="1961.05,20841.68 2104.08,20921.65 2002.99,20979.63 1961.05,20956.21 "/>
   <polygon class="fil1" points="1961.05,20727.2 2205.23,20863.67 2104.08,20921.65 1961.05,20841.68 "/>
   <polygon class="fil1" points="1961.05,20612.72 2306.32,20805.7 2205.23,20863.67 1961.05,20727.2 "/>
   <polygon class="fil1" points="1961.05,20498.24 2407.41,20747.72 2306.32,20805.7 1961.05,20612.72 "/>
   <polygon class="fil1" points="1961.05,20383.7 2508.56,20689.75 2407.41,20747.72 1961.05,20498.24 "/>
   <polygon class="fil2" points="1961.05,20269.23 2609.65,20631.77 2508.56,20689.75 1961.05,20383.7 "/>
   <polygon class="fil2" points="1961.05,20154.69 2710.74,20573.79 2609.65,20631.77 1961.05,20269.23 "/>
   <polygon class="fil3" points="1961.05,20040.21 2811.88,20515.82 2710.74,20573.79 1961.05,20154.69 "/>
   <polygon class="fil3" points="1961.05,19925.73 2912.97,20457.84 2811.88,20515.82 1961.05,20040.21 "/>
   <polygon class="fil3" points="1961.05,19811.25 3014.06,20399.86 2912.97,20457.84 1961.05,19925.73 "/>
   <polygon class="fil3" points="1961.05,19696.77 3115.15,20341.89 3014.06,20399.86 1961.05,19811.25 "/>
   <polygon class="fil3" points="1961.05,19582.24 3216.24,20283.91 3115.15,20341.89 1961.05,19696.77 "/>
   <polygon class="fil3" points="1961.05,19467.76 3317.39,20225.93 3216.24,20283.91 1961.05,19582.24 "/>
   <polygon class="fil3" points="1961.05,19353.28 3418.48,20167.96 3317.39,20225.93 1961.05,19467.76 "/>
   <polygon class="fil3" points="1961.05,19238.74 3519.63,20109.98 3418.48,20167.96 1961.05,19353.28 "/>
   <polygon class="fil3" points="1961.05,19124.26 3620.66,20052.01 3519.63,20109.98 1961.05,19238.74 "/>
   <polygon class="fil3" points="1961.05,19009.73 3721.81,19994.03 3620.66,20052.01 1961.05,19124.26 "/>
   <polygon class="fil4" points="1961.05,18895.25 3822.96,19936.05 3721.81,19994.03 1961.05,19009.73 "/>
   <polygon class="fil4" points="1961.05,18780.77 3924.05,19878.08 3822.96,19936.05 1961.05,18895.25 "/>
   <polygon class="fil4" points="1961.05,18666.29 4025.14,19820.1 3924.05,19878.08 1961.05,18780.77 "/>
   <polygon class="fil4" points="1961.05,18551.76 4126.23,19762.12 4025.14,19820.1 1961.05,18666.29 "/>
   <polygon class="fil5" points="1961.05,18437.28 4227.32,19704.15 4126.23,19762.12 1961.05,18551.76 "/>
   <polygon class="fil5" points="1961.05,18322.8 4328.47,19646.17 4227.32,19704.15 1961.05,18437.28 "/>
   <polygon class="fil5" points="1961.05,18208.32 4429.56,19588.19 4328.47,19646.17 1961.05,18322.8 "/>
   <polygon class="fil5" points="1961.05,18093.78 4530.71,19530.22 4429.56,19588.19 1961.05,18208.32 "/>
   <polygon class="fil5" points="1961.05,17979.25 4631.8,19472.24 4530.71,19530.22 1961.05,18093.78 "/>
   <polygon class="fil5" points="1961.05,17864.83 4732.89,19414.26 4631.8,19472.24 1961.05,17979.25 "/>
   <polygon class="fil6" points="1961.05,17750.29 4833.98,19356.29 4732.89,19414.26 1961.05,17864.83 "/>
   <polygon class="fil6" points="1961.05,17635.81 4935.13,19298.31 4833.98,19356.29 1961.05,17750.29 "/>
   <polygon class="fil7" points="1961.05,17521.33 5036.22,19240.34 4935.13,19298.31 1961.05,17635.81 "/>
   <polygon class="fil7" points="1961.05,17406.85 5137.31,19182.36 5036.22,19240.34 1961.05,17521.33 "/>
   <polygon class="fil7" points="1961.05,17292.32 5238.4,19124.38 5137.31,19182.36 1961.05,17406.85 "/>
   <polygon class="fil7" points="1961.05,17177.84 5339.49,19066.41 5238.4,19124.38 1961.05,17292.32 "/>
   <polygon class="fil7" points="1961.05,17063.36 5440.58,19008.43 5339.49,19066.41 1961.05,17177.84 "/>
   <polygon class="fil8" points="1961.05,16948.82 5541.79,18950.45 5440.58,19008.43 1961.05,17063.36 "/>
   <polygon class="fil8" points="1961.05,16834.34 5642.88,18892.48 5541.79,18950.45 1961.05,16948.82 "/>
   <polygon class="fil8" points="1961.05,16719.81 5743.97,18834.5 5642.88,18892.48 1961.05,16834.34 "/>
   <polygon class="fil8" points="1961.05,16605.33 5845.06,18776.52 5743.97,18834.5 1961.05,16719.81 "/>
   <polygon class="fil9" points="1961.05,16490.85 5946.15,18718.55 5845.06,18776.52 1961.05,16605.33 "/>
   <polygon class="fil9" points="1961.05,16376.37 6047.3,18660.57 5946.15,18718.55 1961.05,16490.85 "/>
   <polygon class="fil9" points="1961.05,16261.83 6148.39,18602.6 6047.3,18660.57 1961.05,16376.37 "/>
   <polygon class="fil9" points="1961.05,16147.36 6249.48,18544.62 6148.39,18602.6 1961.05,16261.83 "/>
   <polygon class="fil10" points="1961.05,16032.82 6350.63,18486.58 6249.48,18544.62 1961.05,16147.36 "/>
   <polygon class="fil10" points="1961.05,15918.4 6451.66,18428.67 6350.63,18486.58 1961.05,16032.82 "/>
   <polygon class="fil10" points="1961.05,15803.86 6552.81,18370.69 6451.66,18428.67 1961.05,15918.4 "/>
   <polygon class="fil10" points="1961.05,15689.38 6592.09,18278.15 6592.09,18348.16 6552.81,18370.69 1961.05,15803.86 "/>
   <polygon class="fil11" points="1961.05,15574.91 6592.09,18163.61 6592.09,18278.15 1961.05,15689.38 "/>
   <polygon class="fil11" points="1961.05,15460.37 6592.09,18049.14 6592.09,18163.61 1961.05,15574.91 "/>
   <polygon class="fil11" points="1961.05,15345.89 6592.09,17934.66 6592.09,18049.14 1961.05,15460.37 "/>
   <polygon class="fil11" points="1961.05,15231.41 6592.09,17820.18 6592.09,17934.66 1961.05,15345.89 "/>
   <polygon class="fil12" points="1961.05,15116.93 6592.09,17705.7 6592.09,17820.18 1961.05,15231.41 "/>
   <polygon class="fil12" points="1961.05,15002.4 6592.09,17591.16 6592.09,17705.7 1961.05,15116.93 "/>
   <polygon class="fil12" points="1961.05,14887.86 6592.09,17476.63 6592.09,17591.16 1961.05,15002.4 "/>
   <polygon class="fil12" points="1961.05,14773.38 6592.09,17362.21 6592.09,17476.63 1961.05,14887.86 "/>
   <polygon class="fil12" points="1961.05,14658.9 6592.09,17247.67 6592.09,17362.21 1961.05,14773.38 "/>
   <polygon class="fil12" points="1961.05,14544.42 6592.09,17133.19 6592.09,17247.67 1961.05,14658.9 "/>
   <polygon class="fil12" points="1961.05,14429.89 6592.09,17018.65 6592.09,17133.19 1961.05,14544.42 "/>
   <polygon class="fil12" points="1961.05,14315.41 6592.09,16904.18 6592.09,17018.65 1961.05,14429.89 "/>
   <polygon class="fil13" points="1961.05,14200.93 6592.09,16789.7 6592.09,16904.18 1961.05,14315.41 "/>
   <polygon class="fil13" points="1961.05,14086.45 6592.09,16675.22 6592.09,16789.7 1961.05,14200.93 "/>
   <polygon class="fil13" points="1961.05,13971.91 6592.09,16560.68 6592.09,16675.22 1961.05,14086.45 "/>
   <polygon class="fil13" points="1961.05,13857.44 6592.09,16446.2 6592.09,16560.68 1961.05,13971.91 "/>
   <polygon class="fil14" points="1961.05,13742.9 6592.09,16331.67 6592.09,16446.2 1961.05,13857.44 "/>
   <polygon class="fil14" points="1961.05,13628.48 6592.09,16217.25 6592.09,16331.67 1961.05,13742.9 "/>
   <polygon class="fil14" points="1961.05,13513.94 6592.09,16102.71 6592.09,16217.25 1961.05,13628.48 "/>
   <polygon class="fil14" points="1961.05,13399.46 6592.09,15988.17 6592.09,16102.71 1961.05,13513.94 "/>
   <polygon class="fil15" points="1961.05,13284.99 6592.09,15873.75 6592.09,15988.17 1961.05,13399.46 "/>
   <polygon class="fil15" points="1961.05,13170.45 6592.09,15759.22 6592.09,15873.75 1961.05,13284.99 "/>
   <polygon class="fil15" points="1961.05,13055.97 6592.09,15644.74 6592.09,15759.22 1961.05,13170.45 "/>
   <polygon class="fil15" points="1961.05,12941.49 6592.09,15530.26 6592.09,15644.74 1961.05,13055.97 "/>
   <polygon class="fil15" points="1961.05,12826.95 6592.09,15415.72 6592.09,15530.26 1961.05,12941.49 "/>
   <polygon class="fil15" points="1961.05,12712.48 6592.09,15301.24 6592.09,15415.72 1961.05,12826.95 "/>
   <polygon class="fil15" points="1961.05,12597.94 6592.09,15186.71 6592.09,15301.24 1961.05,12712.48 "/>
   <polygon class="fil15" points="1961.05,12483.46 6592.09,15072.29 6592.09,15186.71 1961.05,12597.94 "/>
   <polygon class="fil16" points="1961.05,12368.98 6592.09,14957.75 6592.09,15072.29 1961.05,12483.46 "/>
   <polygon class="fil16" points="1961.05,12254.5 6592.09,14843.27 6592.09,14957.75 1961.05,12368.98 "/>
   <polygon class="fil16" points="1961.05,12140.03 6592.09,14728.73 6592.09,14843.27 1961.05,12254.5 "/>
   <polygon class="fil16" points="1961.05,12025.49 6592.09,14614.26 6592.09,14728.73 1961.05,12140.03 "/>
   <polygon class="fil16" points="1961.05,11911.01 6592.09,14499.78 6592.09,14614.26 1961.05,12025.49 "/>
   <polygon class="fil16" points="1961.05,11796.53 6592.09,14385.3 6592.09,14499.78 1961.05,11911.01 "/>
   <polygon class="fil16" points="1961.05,11681.99 6592.09,14270.76 6592.09,14385.3 1961.05,11796.53 "/>
   <polygon class="fil16" points="1961.05,11567.57 6592.09,14156.28 6592.09,14270.76 1961.05,11681.99 "/>
   <polygon class="fil17" points="1961.05,11452.98 6592.09,14041.75 6592.09,14156.28 1961.05,11567.57 "/>
   <polygon class="fil17" points="1961.05,11338.5 6592.09,13927.27 6592.09,14041.75 1961.05,11452.98 "/>
   <polygon class="fil17" points="1961.05,11224.02 6592.09,13812.79 6592.09,13927.27 1961.05,11338.5 "/>
   <polygon class="fil17" points="1961.05,11109.54 6592.09,13698.31 6592.09,13812.79 1961.05,11224.02 "/>
   <polygon class="fil18" points="1961.05,10995.07 6592.09,13583.77 6592.09,13698.31 1961.05,11109.54 "/>
   <polygon class="fil18" points="1961.05,10880.53 6592.09,13469.3 6592.09,13583.77 1961.05,10995.07 "/>
   <polygon class="fil18" points="1961.05,10766.05 6592.09,13354.82 6592.09,13469.3 1961.05,10880.53 "/>
   <polygon class="fil18" points="1961.05,10651.57 6592.09,13240.34 6592.09,13354.82 1961.05,10766.05 "/>
   <polygon class="fil19" points="1961.05,10537.03 6592.09,13125.8 6592.09,13240.34 1961.05,10651.57 "/>
   <polygon class="fil19" points="1961.05,10422.56 6592.09,13011.32 6592.09,13125.8 1961.05,10537.03 "/>
   <polygon class="fil19" points="1961.05,10308.08 6592.09,12896.79 6592.09,13011.32 1961.05,10422.56 "/>
   <polygon class="fil19" points="1961.05,10193.54 6592.09,12782.31 6592.09,12896.79 1961.05,10308.08 "/>
   <polygon class="fil19" points="1961.05,10079.06 6592.09,12667.83 6592.09,12782.31 1961.05,10193.54 "/>
   <polygon class="fil19" points="1961.05,9964.58 6592.09,12553.35 6592.09,12667.83 1961.05,10079.06 "/>
   <polygon class="fil19" points="1961.05,9850.05 6592.09,12438.81 6592.09,12553.35 1961.05,9964.58 "/>
   <polygon class="fil19" points="1961.05,9735.63 6592.09,12324.33 6592.09,12438.81 1961.05,9850.05 "/>
   <polygon class="fil19" points="1961.05,9621.09 6592.09,12209.86 6592.09,12324.33 1961.05,9735.63 "/>
   <polygon class="fil20" points="1961.05,9506.61 6592.09,12095.38 6592.09,12209.86 1961.05,9621.09 "/>
   <polygon class="fil20" points="1961.05,9392.07 6592.09,11980.84 6592.09,12095.38 1961.05,9506.61 "/>
   <polygon class="fil20" points="1961.05,9277.6 6592.09,11866.36 6592.09,11980.84 1961.05,9392.07 "/>
   <polygon class="fil20" points="1961.05,9163.06 6592.09,11751.83 6592.09,11866.36 1961.05,9277.6 "/>
   <polygon class="fil21" points="1961.05,9048.58 6592.09,11637.35 6592.09,11751.83 1961.05,9163.06 "/>
   <polygon class="fil21" points="1961.05,8934.1 6592.09,11522.87 6592.09,11637.35 1961.05,9048.58 "/>
   <polygon class="fil21" points="1961.05,8819.62 6592.09,11408.39 6592.09,11522.87 1961.05,8934.1 "/>
   <polygon class="fil21" points="1961.05,8705.14 6592.09,11293.91 6592.09,11408.39 1961.05,8819.62 "/>
   <polygon class="fil22" points="1961.05,8590.61 6592.09,11179.37 6592.09,11293.91 1961.05,8705.14 "/>
   <polygon class="fil22" points="1961.05,8476.19 6592.09,11064.9 6592.09,11179.37 1961.05,8590.61 "/>
   <polygon class="fil22" points="1961.05,8361.65 6592.09,10950.42 6592.09,11064.9 1961.05,8476.19 "/>
   <polygon class="fil22" points="1961.05,8247.11 6592.09,10835.88 6592.09,10950.42 1961.05,8361.65 "/>
   <polygon class="fil23" points="1961.05,8132.64 6592.09,10721.4 6592.09,10835.88 1961.05,8247.11 "/>
   <polygon class="fil23" points="1961.05,8018.1 6592.09,10606.87 6592.09,10721.4 1961.05,8132.64 "/>
   <polygon class="fil23" points="1961.05,7903.62 6592.09,10492.39 6592.09,10606.87 1961.05,8018.1 "/>
   <polygon class="fil23" points="1961.05,7789.14 6592.09,10377.91 6592.09,10492.39 1961.05,7903.62 "/>
   <polygon class="fil23" points="1961.05,7674.66 6592.09,10263.43 6592.09,10377.91 1961.05,7789.14 "/>
   <polygon class="fil23" points="1961.05,7560.18 6592.09,10148.89 6592.09,10263.43 1961.05,7674.66 "/>
   <polygon class="fil23" points="1961.05,7445.65 6592.09,10034.41 6592.09,10148.89 1961.05,7560.18 "/>
   <polygon class="fil23" points="1961.05,7331.11 6592.09,9919.94 6592.09,10034.41 1961.05,7445.65 "/>
   <polygon class="fil24" points="1961.05,7216.69 6592.09,9805.46 6592.09,9919.94 1961.05,7331.11 "/>
   <polygon class="fil24" points="1961.05,7102.15 6592.09,9690.92 6592.09,9805.46 1961.05,7216.69 "/>
   <polygon class="fil24" points="1961.05,6987.68 6592.09,9576.44 6592.09,9690.92 1961.05,7102.15 "/>
   <polygon class="fil24" points="1961.05,6873.2 6592.09,9461.9 6592.09,9576.44 1961.05,6987.68 "/>
   <polygon class="fil24" points="1961.05,6758.66 6592.09,9347.43 6592.09,9461.9 1961.05,6873.2 "/>
   <polygon class="fil24" points="1961.05,6644.18 6592.09,9232.95 6592.09,9347.43 1961.05,6758.66 "/>
   <polygon class="fil24" points="1961.05,6529.7 6592.09,9118.47 6592.09,9232.95 1961.05,6644.18 "/>
   <polygon class="fil24" points="1961.05,6415.22 6592.09,9003.99 6592.09,9118.47 1961.05,6529.7 "/>
   <polygon class="fil25" points="1961.05,6300.75 6592.09,8889.45 6592.09,9003.99 1961.05,6415.22 "/>
   <polygon class="fil25" points="1961.05,6186.15 6592.09,8774.98 6592.09,8889.45 1961.05,6300.75 "/>
   <polygon class="fil25" points="1961.05,6071.73 6592.09,8660.5 6592.09,8774.98 1961.05,6186.15 "/>
   <polygon class="fil25" points="1961.05,5957.19 6592.09,8545.96 6592.09,8660.5 1961.05,6071.73 "/>
   <polygon class="fil26" points="1961.05,5842.71 6592.09,8431.48 6592.09,8545.96 1961.05,5957.19 "/>
   <polygon class="fil26" points="1961.05,5728.24 6592.09,8316.94 6592.09,8431.48 1961.05,5842.71 "/>
   <polygon class="fil26" points="1961.05,5613.7 6592.09,8202.47 6592.09,8316.94 1961.05,5728.24 "/>
   <polygon class="fil26" points="1961.05,5499.22 6592.09,8087.99 6592.09,8202.47 1961.05,5613.7 "/>
   <polygon class="fil26" points="1961.05,5384.74 6592.09,7973.51 6592.09,8087.99 1961.05,5499.22 "/>
   <polygon class="fil26" points="1961.05,5270.26 6592.09,7859.03 6592.09,7973.51 1961.05,5384.74 "/>
   <polygon class="fil26" points="1961.05,5155.79 6592.09,7744.55 6592.09,7859.03 1961.05,5270.26 "/>
   <polygon class="fil26" points="1961.05,5041.25 6592.09,7630.02 6592.09,7744.55 1961.05,5155.79 "/>
   <polygon class="fil27" points="1961.05,4926.77 6592.09,7515.54 6592.09,7630.02 1961.05,5041.25 "/>
   <polygon class="fil27" points="1961.05,4812.23 6592.09,7401 6592.09,7515.54 1961.05,4926.77 "/>
   <polygon class="fil27" points="1961.05,4697.75 6592.09,7286.52 6592.09,7401 1961.05,4812.23 "/>
   <polygon class="fil27" points="1961.05,4583.28 6592.09,7172.04 6592.09,7286.52 1961.05,4697.75 "/>
   <polygon class="fil27" points="1961.05,4468.8 6592.09,7057.51 6592.09,7172.04 1961.05,4583.28 "/>
   <polygon class="fil27" points="1961.05,4354.26 6592.09,6943.03 6592.09,7057.51 1961.05,4468.8 "/>
   <polygon class="fil27" points="6592.09,6943.03 1961.05,4354.26 1961.05,4268.27 6592.09,6923.74 "/>
   <polygon class="fil28" points="6592.09,21003.69 6592.09,20924.95 "/>
   <polygon class="fil29" points="6592.09,20924.95 6592.09,20567.78 "/>
   <polygon class="fil30" points="6592.09,20567.78 6592.09,20210.54 "/>
   <polygon class="fil31" points="6592.09,20210.54 6592.09,19853.36 "/>
   <polygon class="fil32" points="6592.09,19853.36 6592.09,19496.13 "/>
   <polygon class="fil33" points="6592.09,19496.13 6592.09,19138.95 "/>
   <polygon class="fil33" points="6592.09,19138.95 6592.09,18781.77 "/>
   <polygon class="fil34" points="6592.09,18781.77 6592.09,18424.6 "/>
   <polygon class="fil35" points="6592.09,18424.6 6592.09,18348.16 6592.09,18067.36 "/>
   <polygon class="fil36" points="6592.09,18067.36 6592.09,17710.12 "/>
   <polygon class="fil37" points="6592.09,17710.12 6592.09,17353.01 "/>
   <polygon class="fil37" points="6592.09,17353.01 6592.09,16995.77 "/>
   <polygon class="fil38" points="6592.09,16995.77 6592.09,16638.59 "/>
   <polygon class="fil39" points="6592.09,16638.59 6592.09,16281.42 "/>
   <polygon class="fil40" points="6592.09,16281.42 6592.09,15924.24 "/>
   <polygon class="fil41" points="6592.09,15924.24 6592.09,15567 "/>
   <polygon class="fil42" points="6592.09,15567 6592.09,15209.83 "/>
   <polygon class="fil43" points="6592.09,15209.83 6592.09,14852.65 "/>
   <path class="fil44" d="M10443.36 18748.69l27.72 30.67 -95.96 55.02 -13.56 -7.66 50.07 -28.73 -13.57 -7.9 49.96 -28.49 -13.39 -7.9 8.73 -5.01zm-3851.27 -3896.04l0 -357.18 0 357.18z"/>
   <path class="fil45" d="M10619.29 18585.79l64.7 71.48 -212.91 122.09 -27.72 -30.67 41.23 -23.54 -13.63 -7.9 50.02 -28.72 -13.63 -7.67 50.19 -28.72 -13.39 -7.67 49.96 -28.72 -13.51 -7.73 38.69 -22.23zm-4027.2 -4090.32l0 -357.23 0 357.23z"/>
   <path class="fil46" d="M10785.67 18412.33l111.24 122.85 -212.92 122.09 -64.7 -71.48 11.21 -6.49 -13.74 -7.9 50.07 -28.67 -13.45 -7.72 50.08 -28.73 -13.74 -7.9 49.89 -28.49 -13.33 -7.66 50.13 -28.79 -13.74 -7.9 23 -13.21zm-4193.58 -4274.09l0 -357.18 0 357.18z"/>
   <path class="fil47" d="M10952.23 18239.17l157.53 173.93 -212.85 122.08 -111.24 -122.85 27.08 -15.45 -13.51 -7.73 49.9 -28.72 -13.45 -7.67 50.19 -28.72 -13.68 -7.91 49.83 -28.54 -13.44 -7.67 50.07 -28.9 -13.62 -7.73 7.19 -4.12zm-4360.14 -4458.11l0 -357.18 0 357.18z"/>
   <path class="fil48" d="M11128.05 18076.09l194.69 214.92 -212.98 122.09 -157.53 -173.93 42.76 -24.6 -13.56 -7.9 49.95 -28.49 -13.51 -7.72 50.08 -28.9 -13.39 -7.73 49.95 -28.49 -13.68 -7.9 37.22 -21.35zm-4535.96 -4652.21l0 -357.23 0 357.23z"/>
   <path class="fil49" d="M11294.66 17902.87l240.93 266.11 -212.85 122.03 -194.69 -214.92 12.85 -7.37 -13.62 -7.91 49.96 -28.48 -13.27 -7.73 49.89 -28.66 -13.74 -7.73 50.13 -28.72 -13.74 -7.91 50.07 -28.72 -13.39 -7.67 21.47 -12.32zm-4702.57 -4836.22l0 -357.18 0 357.18z"/>
   <path class="fil50" d="M11461.28 17729.71l287.23 317.18 -212.92 122.09 -240.93 -266.11 28.49 -16.4 -13.39 -7.72 49.96 -28.67 -13.69 -7.72 50.08 -28.9 -13.75 -7.73 50.14 -28.66 -13.45 -7.97 49.96 -28.48 -13.33 -7.73 5.6 -3.18zm-4869.19 -5020.24l0 -357.18 0 357.18z"/>
   <path class="fil51" d="M11637.1 17566.63l324.32 358.18 -212.91 122.08 -287.23 -317.18 44.35 -25.48 -13.74 -7.91 49.9 -28.54 -13.63 -7.91 50.19 -28.72 -13.27 -7.67 49.84 -28.54 -13.62 -7.9 35.8 -20.41zm-5045.01 -5214.34l0 -357.18 0 357.18z"/>
   <path class="fil52" d="M11803.59 17393.29l370.75 409.43 -212.92 122.09 -324.32 -358.18 14.39 -8.26 -13.69 -7.9 50.08 -28.72 -13.51 -7.73 49.9 -28.72 -13.51 -7.67 50.07 -28.72 -13.5 -7.73 49.89 -28.66 -13.62 -7.73 19.99 -11.5zm-5211.5 -5398.18l0 -357.29 0 357.29z"/>
   <path class="fil53" d="M11969.97 17219.89l9.32 10.26 -13.56 -7.84 4.24 -2.42zm9.44 10.38l407.78 450.36 -212.85 122.09 -370.75 -409.43 29.96 -17.16 -13.56 -7.97 50.13 -28.72 -13.39 -7.67 49.96 -28.72 -13.57 -7.73 49.96 -28.66 -13.63 -7.9 49.96 -28.49zm-5387.32 -5592.45l0 -357.12 0 357.12z"/>
   <path class="fil54" d="M6592.09 10923.46l167.85 185.43 0 30.26 -36.57 -20.88 0 57.15 -36.39 -20.82 0 57.27 -36.56 -20.88 0 57.39 -36.33 -20.82 0 57.39 -22 -12.57 0 8.32 0 -357.24zm5553.7 6133.41l454.32 501.68 -212.92 122.08 -407.78 -450.36 0.06 0 -0.18 -0.12 -9.32 -10.26 45.83 -26.3 -13.39 -7.67 50.02 -28.72 -13.57 -7.67 49.9 -28.72 -13.63 -7.73 50.25 -28.9 -13.68 -7.73 34.09 -19.58z"/>
   <path class="fil55" d="M6592.09 10566.35l350.1 386.6 0 3.9 -36.57 -20.94 0 57.27 -36.39 -20.82 0 57.21 -36.33 -20.82 0 57.44 -36.57 -20.99 0 57.33 -36.39 -20.88 0 27.24 -167.85 -185.43 0 -357.11zm5720.26 6317.24l500.67 552.87 -212.91 122.09 -454.32 -501.68 15.92 -9.14 -13.5 -7.67 50.07 -28.72 -13.39 -7.67 49.96 -28.72 -13.69 -7.73 50.08 -28.9 -13.63 -7.66 49.78 -28.78 -13.5 -7.67 18.46 -10.62z"/>
   <path class="fil56" d="M6592.09 10209.05l495.77 547.56 0 54.32 -36.33 -20.82 0 57.21 -36.39 -20.88 0 57.33 -36.56 -20.94 0 57.39 -36.39 -20.82 0 53.55 -350.1 -386.6 0 -357.3zm5886.93 6501.38l5.9 6.55 -8.55 -5.02 2.65 -1.53zm9.32 10.32l537.54 593.68 -212.86 122.03 -500.67 -552.87 31.61 -18.1 -13.51 -7.67 50.08 -28.72 -13.39 -7.73 50.01 -28.72 -13.86 -7.91 50.02 -28.72 -13.39 -7.67 48.42 -27.6z"/>
   <path class="fil57" d="M6592.09 9851.93l678.26 749.04 0 27.66 -36.57 -20.88 0 57.39 -36.57 -20.94 0 57.15 -36.15 -20.76 0 57.5 -36.57 -21.05 0 57.38 -36.63 -20.87 0 3.06 -495.77 -547.56 0 -357.12zm6062.81 6695.6l583.83 644.82 -212.85 122.08 -537.54 -593.68 1.53 -0.88 -4.95 -2.89 -5.9 -6.55 47.42 -27.19 -13.62 -7.73 50.01 -28.72 -13.74 -7.9 50.07 -28.67 -13.39 -7.72 49.96 -28.72 -13.39 -7.67 32.56 -18.58z"/>
   <path class="fil58" d="M6592.09 9494.7l860.56 950.39 0 1.12 -36.39 -20.88 0 57.56 -36.57 -20.94 0 57.27 -36.56 -20.88 0 57.21 -36.22 -20.76 0 57.39 -36.56 -20.88 0 29.67 -678.26 -749.04 0 -357.23zm6229.13 6879.31l630.48 696.25 -212.97 122.09 -583.83 -644.82 17.45 -9.97 -13.74 -7.9 50.08 -28.72 -13.69 -7.91 50.08 -28.66 -13.45 -7.73 50.01 -28.72 -13.39 -7.67 49.96 -28.72 -13.8 -7.9 16.81 -9.62z"/>
   <path class="fil59" d="M6592.09 9137.46l1006.42 1111.46 0 51.49 -36.57 -20.94 0 57.39 -36.39 -20.76 0 57.27 -36.57 -20.94 0 57.27 -36.33 -20.82 0 56.21 -860.56 -950.39 0 -357.24zm6395.74 7063.33l2.07 2.3 -3.07 -1.77 1 -0.53zm9.2 10.15l667.53 737.23 -212.86 122.09 -630.48 -696.25 33.14 -18.93 -13.5 -7.67 50.07 -28.9 -13.39 -7.72 49.96 -28.73 -13.51 -7.66 50.13 -28.73 -13.86 -7.9 46.77 -26.83z"/>
   <path class="fil60" d="M6592.09 8780.28l1188.66 1312.76 0 25.12 -36.57 -20.93 0 57.38 -36.33 -20.82 0 57.21 -36.39 -20.82 0 57.39 -36.56 -20.94 0 57.33 -36.39 -20.82 0 5.78 -1006.42 -1111.46 0 -357.18zm6571.56 7257.49l713.82 788.32 -212.91 122.08 -667.53 -737.23 3.25 -1.89 -10.38 -5.96 -2.07 -2.3 49.02 -27.95 -13.51 -7.67 50.07 -28.96 -13.56 -7.67 49.95 -28.72 -13.5 -7.73 49.83 -28.66 -13.56 -7.73 31.08 -17.93z"/>
   <path class="fil61" d="M6592.09 8423.11l1368.37 1511.22 -33.8 -19.35 0 57.27 -36.56 -20.88 0 57.45 -36.57 -20.94 0 57.09 -36.21 -20.64 0 57.44 -36.57 -20.99 0 32.26 -1188.66 -1312.76 0 -357.17zm6738.12 7441.44l760.12 839.51 -212.86 122.03 -713.82 -788.32 19.11 -10.97 -13.51 -7.72 49.84 -28.49 -13.51 -7.67 50.14 -28.96 -13.63 -7.72 49.96 -28.67 -13.51 -7.72 50.07 -28.72 -13.56 -7.91 15.16 -8.67z"/>
   <path class="fil62" d="M6592.09 8065.87l1516.82 1675.18 0 48.96 -36.57 -20.94 0 57.33 -36.39 -20.82 0 57.26 -36.33 -20.82 0 57.39 -36.57 -20.94 0 57.33 -2.59 -1.47 -1368.37 -1511.22 0 -357.24zm6913.82 7635.49l797.39 880.55 -212.97 122.15 -760.12 -839.51 34.79 -19.99 -13.74 -7.73 50.13 -28.72 -13.44 -7.73 50.01 -28.66 -13.45 -7.73 50.02 -28.72 -13.86 -7.9 45.24 -26.01z"/>
   <path class="fil63" d="M6592.09 7708.69l1699.3 1876.66 0 22.41 -36.57 -20.94 0 57.27 -36.62 -20.88 0 57.39 -36.33 -20.82 0 57.39 -36.57 -20.94 0 57.21 -36.39 -20.82 0 8.43 -1516.82 -1675.18 0 -357.18zm7080.55 7819.56l843.52 931.64 -212.86 122.02 -797.39 -880.55 4.77 -2.72 -13.39 -7.66 49.96 -28.55 -13.51 -7.9 50.14 -28.67 -13.57 -7.72 50.07 -28.73 -13.68 -7.9 49.9 -28.49 -13.51 -7.72 29.55 -17.05z"/>
   <path class="fil63" d="M6592.09 7351.52l1873.94 2069.57 -28.96 -16.63 0 57.39 -36.57 -20.94 0 57.33 -36.39 -20.82 0 57.38 -36.56 -20.93 0 57.21 -36.16 -20.77 0 35.04 -1699.3 -1876.66 0 -357.17zm7247.05 8003.51l889.93 982.77 -212.91 122.09 -843.52 -931.64 20.58 -11.85 -13.5 -7.73 49.95 -28.66 -13.56 -7.9 49.95 -28.55 -13.74 -7.9 50.19 -28.73 -13.56 -7.72 50.13 -28.61 -13.51 -7.78 13.57 -7.79z"/>
   <path class="fil64" d="M6592.09 6994.34l2027.22 2238.84 0 46.42 -36.56 -20.94 0 57.21 -36.33 -20.82 0 57.27 -36.39 -20.76 0 57.39 -36.39 -20.88 0 57.39 -7.61 -4.37 -1873.94 -2069.57 0 -357.18zm7422.86 8197.67l926.98 1023.7 -212.86 122.09 -889.93 -982.77 36.39 -20.82 -13.75 -7.78 50.14 -28.78 -13.51 -7.73 49.9 -28.66 -13.51 -7.73 50.13 -28.78 -13.68 -7.79 43.7 -24.95z"/>
   <path class="fil64" d="M6592.09 6637.1l2209.53 2440.14 0 20 -36.39 -20.82 0 57.21 -36.39 -20.82 0 57.38 -36.57 -20.93 0 57.32 -36.39 -20.87 0 57.38 -36.57 -20.88 0 10.97 -2027.22 -2238.84 0 -70.6 0 -286.64zm7589.48 8381.63l973.27 1074.9 -212.91 122.08 -926.98 -1023.7 6.43 -3.65 -13.56 -7.79 49.95 -28.72 -13.5 -7.79 49.89 -28.72 -13.5 -7.78 50.13 -28.79 -13.51 -7.72 49.96 -28.61 -13.57 -7.72 27.9 -15.99z"/>
   <path class="fil65" d="M6592.09 6279.93l2379.68 2628.04 -24.3 -13.92 0 57.27 -36.39 -20.82 0 57.39 -36.5 -20.88 0 57.21 -36.45 -20.88 0 57.51 -36.51 -20.94 0 37.33 -2209.53 -2440.14 0 -357.17zm7756.04 8565.52l1019.63 1126.09 -212.92 122.09 -973.27 -1074.9 22.06 -12.68 -13.74 -7.84 50.13 -28.72 -13.51 -7.73 49.96 -28.66 -13.57 -7.79 49.96 -28.66 -13.51 -7.73 50.13 -28.78 -13.5 -7.73 12.15 -6.96z"/>
   <path class="fil66" d="M6592.09 5922.75l2537.63 2802.51 0 43.88 -36.33 -20.88 0 57.27 -36.57 -20.88 0 57.27 -36.39 -20.82 0 57.33 -36.39 -20.88 0 57.44 -12.27 -7.02 -2379.68 -2628.04 0 -357.18zm7931.79 8759.63l1056.79 1167.07 -212.91 122.09 -1019.63 -1126.09 37.98 -21.76 -13.74 -7.84 49.95 -28.61 -13.56 -7.84 49.95 -28.67 -13.5 -7.72 50.13 -28.73 -13.51 -7.72 42.05 -24.18z"/>
   <path class="fil67" d="M6592.09 5565.51l2719.93 3003.81 0 17.28 -36.39 -20.82 0 57.5 -36.56 -20.94 0 57.21 -36.22 -20.7 0 57.39 -36.5 -21 0 57.33 -36.63 -20.88 0 13.57 -2537.63 -2802.51 0 -357.24zm8098.41 8943.64l1103.08 1218.22 -212.91 122.08 -1056.79 -1167.07 7.85 -4.49 -13.69 -7.78 50.31 -28.78 -13.5 -7.73 49.72 -28.66 -13.51 -7.79 50.13 -28.78 -13.5 -7.73 49.89 -28.6 -13.5 -7.73 26.42 -15.16z"/>
   <path class="fil68" d="M6592.09 5208.34l3209.22 3544.22 -452.72 -259.62 0 57.38 -36.57 -20.87 0 39.87 -2719.93 -3003.81 0 -357.17zm8264.85 9127.53l1149.5 1269.47 -212.86 122.03 -1103.08 -1218.22 23.71 -13.62 -13.74 -7.78 50.19 -28.67 -13.57 -7.72 49.96 -28.79 -13.51 -7.78 49.9 -28.67 -13.51 -7.84 49.96 -28.6 -13.57 -7.73 10.62 -6.08z"/>
   <path class="fil69" d="M6592.09 4851.16l3882 4287.19 -672.78 -385.79 -3209.22 -3544.22 0 -357.18zm8440.72 9321.7l1186.54 1310.39 -212.91 122.09 -1149.5 -1269.47 39.57 -22.7 -13.56 -7.73 49.95 -28.6 -13.74 -7.85 49.96 -28.78 -13.33 -7.67 49.95 -28.66 -13.56 -7.73 40.63 -23.29z"/>
   <path class="fil70" d="M6592.09 4493.98l4554.71 5030.15 -672.71 -385.78 -3882 -4287.19 0 -357.18zm8607.16 9505.48l1232.96 1361.71 -212.86 122.08 -1186.54 -1310.39 9.56 -5.49 -13.74 -7.84 49.89 -28.61 -13.5 -7.72 49.95 -28.73 -13.33 -7.72 49.9 -28.79 -13.51 -7.66 50.19 -28.78 -13.74 -7.85 24.77 -14.21z"/>
   <path class="fil71" d="M6592.09 4269.98l1.12 -1.06 246.65 141.43 4979.83 5499.62 -672.89 -385.84 -4554.71 -5030.15 0 -224zm8773.78 9556.32l1279.31 1412.78 -212.97 122.09 -1232.96 -1361.71 25.13 -14.39 -13.51 -7.73 50.13 -28.66 -13.74 -7.85 50.19 -28.78 -13.33 -7.67 49.72 -28.66 -13.74 -7.84 50.13 -28.73 -13.27 -7.72 8.91 -5.13z"/>
   <path class="fil72" d="M7512.46 4796.01l4979.89 5499.68 -672.66 -385.72 -4979.83 -5499.62 672.6 385.66zm8029.17 8867.27l1316.41 1453.77 -212.86 122.03 -1279.31 -1412.78 40.99 -23.54 -13.51 -7.72 50.13 -28.73 -13.74 -7.84 49.96 -28.66 -13.57 -7.79 49.96 -28.66 -13.51 -7.73 39.05 -22.35z"/>
   <path class="fil73" d="M8185.11 5181.74l4980.01 5499.73 -672.77 -385.78 -4979.89 -5499.68 672.65 385.73zm7523.07 8308.26l1362.71 1504.97 -212.85 122.08 -1316.41 -1453.77 11.08 -6.37 -13.5 -7.85 49.95 -28.66 -13.56 -7.73 50.13 -28.72 -13.51 -7.73 49.72 -28.66 -13.74 -7.84 50.13 -28.73 -13.27 -7.66 23.12 -13.33z"/>
   <path class="fil74" d="M8858 5567.58l4979.96 5499.73 -672.84 -385.84 -4980.01 -5499.73 672.89 385.84zm7016.68 7749.08l1409.13 1556.22 -212.92 122.09 -1362.71 -1504.97 26.84 -15.4 -13.57 -7.72 50.14 -28.73 -13.69 -7.84 49.9 -28.6 -13.51 -7.73 49.96 -28.72 -13.57 -7.73 50.13 -28.78 -13.5 -7.85 7.37 -4.24z"/>
   <path class="fil75" d="M9530.66 5953.3l4980.01 5499.8 -672.71 -385.79 -4979.96 -5499.73 672.66 385.72zm6519.9 7200.4l1446.16 1597.09 -212.91 122.09 -1409.13 -1556.22 42.58 -24.42 -13.5 -7.79 49.89 -28.66 -13.5 -7.73 50.13 -28.66 -13.74 -7.78 50.13 -28.79 -13.51 -7.72 37.4 -21.41z"/>
   <path class="fil76" d="M10203.37 6339.02l4980.08 5499.86 -672.78 -385.78 -4980.01 -5499.8 672.71 385.72zm6013.68 6641.34l1492.53 1648.35 -212.86 122.08 -1446.16 -1597.09 12.56 -7.2 -13.51 -7.84 49.9 -28.67 -13.51 -7.72 50.13 -28.72 -13.74 -7.85 50.13 -28.66 -13.5 -7.73 49.95 -28.72 -13.56 -7.85 21.64 -12.38z"/>
   <path class="fil77" d="M10876.09 6724.75l4980.13 5499.91 -672.77 -385.78 -4980.08 -5499.86 672.72 385.73zm5507.46 6082.27l1539 1699.6 -212.97 122.09 -1492.53 -1648.35 28.31 -16.22 -13.5 -7.84 49.95 -28.67 -13.56 -7.72 50.13 -28.73 -13.51 -7.72 50.14 -28.79 -13.51 -7.72 49.72 -28.61 -13.74 -7.84 6.07 -3.48z"/>
   <path class="fil78" d="M11548.92 7110.59l4980.07 5499.91 -672.77 -385.84 -4980.13 -5499.91 672.83 385.84zm5010.51 5533.47l1575.98 1740.47 -212.86 122.09 -1539 -1699.6 44.06 -25.3 -13.27 -7.67 49.9 -28.66 -13.51 -7.73 50.13 -28.72 -13.74 -7.85 49.78 -28.66 -13.33 -7.67 35.86 -20.7z"/>
   <polygon class="fil79" points="12221.58,7496.31 18348.32,14262.5 18135.41,14384.53 16559.43,12644.06 16573.46,12635.98 16528.99,12610.5 11548.92,7110.59 "/>
   <polygon class="fil80" points="12894.29,7882.03 18561.18,14140.42 18348.32,14262.5 12221.58,7496.31 "/>
   <polygon class="fil81" points="13567.13,8267.87 18774.09,14018.33 18561.18,14140.42 12894.29,7882.03 "/>
   <polygon class="fil82" points="14239.84,8653.6 18987,13896.24 18774.09,14018.33 13567.13,8267.87 "/>
   <polygon class="fil83" points="14912.5,9039.32 19199.86,13774.16 18987,13896.24 14239.84,8653.6 "/>
   <polygon class="fil84" points="15585.27,9425.1 19412.77,13652.07 19199.86,13774.16 14912.5,9039.32 "/>
   <polygon class="fil85" points="16258.04,9810.88 19625.69,13530.04 19412.77,13652.07 15585.27,9425.1 "/>
   <polygon class="fil86" points="16930.76,10196.61 19838.6,13407.96 19625.69,13530.04 16258.04,9810.88 "/>
   <polygon class="fil87" points="17603.42,10582.33 20051.46,13285.87 19838.6,13407.96 16930.76,10196.61 "/>
   <polygon class="fil88" points="18276.25,10968.17 20264.37,13163.78 20051.46,13285.87 17603.42,10582.33 "/>
   <polygon class="fil89" points="18949.02,11353.89 20477.29,13041.7 20264.37,13163.78 18276.25,10968.17 "/>
   <polygon class="fil90" points="19621.62,11739.62 20690.14,12919.67 20477.29,13041.7 18949.02,11353.89 "/>
   <polygon class="fil91" points="20294.39,12125.4 20903.06,12797.58 20690.14,12919.67 19621.62,11739.62 "/>
   <polygon class="fil92" points="20967.17,12511.18 21115.97,12675.5 20903.06,12797.58 20294.39,12125.4 "/>
   <polygon class="fil93" points="21115.97,12675.5 20967.17,12511.18 21184.86,12635.98 "/>
   <polygon class="fil94" points="10305.41,18874.61 10305.29,18874.49 10375.18,18834.38 10375.18,18834.62 "/>
   <polygon class="fil94" points="9875.39,19121.2 9875.21,19121.08 10305.29,18874.49 10305.41,18874.61 "/>
   <polygon class="fil94" points="9445.26,19367.79 9445.2,19367.67 9875.21,19121.08 9875.39,19121.2 "/>
   <polygon class="fil94" points="9015.18,19614.38 9015.12,19614.26 9445.2,19367.67 9445.26,19367.79 "/>
   <polygon class="fil94" points="8585.17,19860.97 8585.05,19860.85 9015.12,19614.26 9015.18,19614.38 "/>
   <polygon class="fil95" points="8155.09,20107.56 8155.03,20107.5 8585.05,19860.85 8585.17,19860.97 "/>
   <polygon class="fil95" points="7725.02,20354.15 7724.96,20354.1 8155.03,20107.5 8155.09,20107.56 "/>
   <polygon class="fil95" points="7724.96,20354.1 7725.02,20354.15 7294.94,20600.69 "/>
   <polygon class="fil95" points="6864.87,20847.28 7294.94,20600.69 "/>
   <polygon class="fil95" points="6592.09,21003.69 6592.09,21003.69 6864.87,20847.28 "/>
   <polygon class="fil96" points="6592.09,20924.95 6639.03,20976.8 6592.09,21003.69 "/>
   <polygon class="fil97" points="6592.09,20567.72 6851.95,20854.71 6639.03,20976.8 6592.09,20924.95 "/>
   <polygon class="fil98" points="6592.09,20210.54 7064.8,20732.62 6851.95,20854.71 6592.09,20567.72 "/>
   <polygon class="fil98" points="6592.09,19853.36 7277.72,20610.54 7064.8,20732.62 6592.09,20210.54 "/>
   <polygon class="fil99" points="6592.09,19496.13 7490.63,20488.45 7277.72,20610.54 6592.09,19853.36 "/>
   <polygon class="fil99" points="6592.09,19138.95 7703.49,20366.36 7490.63,20488.45 6592.09,19496.13 "/>
   <polygon class="fil99" points="6592.09,18781.77 7916.4,20244.28 7703.49,20366.36 6592.09,19138.95 "/>
   <polygon class="fil100" points="6592.09,18424.6 8129.26,20122.19 7916.4,20244.28 6592.09,18781.77 "/>
   <polygon class="fil100" points="6592.09,18067.36 8342.17,20000.1 8129.26,20122.19 6592.09,18424.6 "/>
   <polygon class="fil101" points="6592.09,17710.18 8555.09,19878.08 8342.17,20000.1 6592.09,18067.36 "/>
   <polygon class="fil101" points="6592.09,17353.01 8767.94,19755.99 8555.09,19878.08 6592.09,17710.18 "/>
   <polygon class="fil102" points="6592.09,16995.77 8980.86,19633.9 8767.94,19755.99 6592.09,17353.01 "/>
   <polygon class="fil102" points="6592.09,16638.59 9193.77,19511.82 8980.86,19633.9 6592.09,16995.77 "/>
   <polygon class="fil103" points="6592.09,16281.42 9406.63,19389.73 9193.77,19511.82 6592.09,16638.59 "/>
   <polygon class="fil104" points="6592.09,15924.24 9619.54,19267.64 9406.63,19389.73 6592.09,16281.42 "/>
   <polygon class="fil105" points="6592.09,15567 9832.45,19145.56 9619.54,19267.64 6592.09,15924.24 "/>
   <polygon class="fil105" points="6592.09,15209.83 10045.31,19023.53 9832.45,19145.56 6592.09,15567 "/>
   <polygon class="fil106" points="6592.09,14852.65 10258.22,18901.44 10045.31,19023.53 6592.09,15209.83 "/>
   <polygon class="fil107" points="6592.09,14495.41 10443.36,18748.69 10434.63,18753.7 10448.02,18761.6 10398.06,18790.09 10411.63,18797.99 10361.56,18826.72 10375.12,18834.38 10258.22,18901.44 6592.09,14852.65 "/>
   <polygon class="fil108" points="6592.09,14138.18 10619.29,18585.73 10580.6,18608.02 10594.11,18615.75 10544.15,18644.47 10557.54,18652.14 10507.35,18680.86 10520.98,18688.53 10470.96,18717.25 10484.59,18725.15 10443.36,18748.69 6592.09,14495.41 "/>
   <polygon class="fil109" points="6592.09,13781.06 10785.67,18412.39 10762.67,18425.54 10776.41,18433.44 10726.28,18462.23 10739.61,18469.89 10689.72,18498.38 10703.46,18506.28 10653.38,18535.01 10666.83,18542.73 10616.76,18571.4 10630.5,18579.3 10619.29,18585.73 6592.09,14138.18 "/>
   <polygon class="fil109" points="6592.09,13423.82 10952.29,18239.11 10945.04,18243.29 10958.66,18251.02 10908.59,18279.92 10922.03,18287.59 10872.2,18316.13 10885.88,18324.04 10835.69,18352.76 10849.14,18360.43 10799.24,18389.15 10812.75,18396.88 10785.67,18412.39 6592.09,13781.06 "/>
   <polygon class="fil110" points="6592.09,13066.65 11128.05,18076.09 11090.83,18097.44 11104.51,18105.34 11054.56,18133.83 11067.95,18141.56 11017.87,18170.46 11031.38,18178.18 10981.43,18206.67 10994.99,18214.57 10952.29,18239.11 6592.09,13423.82 "/>
   <polygon class="fil110" points="6592.09,12709.47 11294.66,17902.87 11273.19,17915.19 11286.58,17922.86 11236.51,17951.58 11250.25,17959.49 11200.12,17988.21 11213.86,17995.94 11163.97,18024.6 11177.24,18032.33 11127.28,18060.81 11140.9,18068.72 11128.05,18076.09 6592.09,13066.65 "/>
   <polygon class="fil110" points="6592.09,12352.29 11461.28,17729.65 11455.68,17732.89 11469.01,17740.62 11419.05,17769.1 11432.5,17777.07 11382.36,17805.73 11396.11,17813.46 11346.03,17842.36 11359.72,17850.08 11309.76,17878.75 11323.15,17886.47 11294.66,17902.87 6592.09,12709.47 "/>
   <polygon class="fil111" points="6592.09,11995.05 11637.1,17566.63 11601.3,17587.04 11614.92,17594.94 11565.08,17623.48 11578.35,17631.15 11528.16,17659.87 11541.79,17667.78 11491.89,17696.32 11505.63,17704.23 11461.28,17729.65 6592.09,12352.29 "/>
   <polygon class="fil112" points="6592.09,11637.88 11803.59,17393.29 11783.6,17404.79 11797.22,17412.52 11747.33,17441.18 11760.83,17448.91 11710.76,17477.63 11724.27,17485.3 11674.37,17514.02 11687.88,17521.75 11637.8,17550.47 11651.49,17558.37 11637.1,17566.63 6592.09,11995.05 "/>
   <polygon class="fil112" points="6592.09,11280.7 11969.97,17219.89 11965.73,17222.31 11979.23,17230.15 11979.41,17230.33 11929.45,17258.76 11943.08,17266.66 11893.12,17295.32 11906.69,17303.05 11856.73,17331.77 11870.12,17339.44 11819.99,17368.16 11833.55,17376.13 11803.59,17393.29 6592.09,11637.88 "/>
   <path class="fil113" d="M6759.94 11108.89l5385.91 5947.98 -34.15 19.58 13.68 7.73 -50.25 28.9 13.63 7.73 -49.9 28.72 13.57 7.67 -50.02 28.72 13.39 7.67 -45.83 26.3 -5377.88 -5939.19 0 -8.32 22 12.57 0 -57.39 36.33 20.82 0 -57.39 36.56 20.88 0 -57.27 36.39 20.82 0 -57.15 36.57 20.88 0 -30.26zm5219.47 6121.44l-0.18 -0.18 0.24 0.12 -0.06 0.06z"/>
   <polygon class="fil114" points="6942.19,10952.95 12312.35,16883.59 12293.89,16894.21 12307.39,16901.88 12257.61,16930.66 12271.24,16938.32 12221.16,16967.22 12234.85,16974.95 12184.89,17003.67 12198.28,17011.34 12148.21,17040.06 12161.71,17047.73 12145.85,17056.87 6759.94,11108.89 6759.94,11081.65 6796.33,11102.53 6796.33,11045.2 6832.9,11066.19 6832.9,11008.75 6869.23,11029.57 6869.23,10972.36 6905.62,10993.18 6905.62,10935.91 6942.19,10956.85 "/>
   <polygon class="fil115" points="7087.86,10756.61 12479.02,16710.43 12476.37,16711.96 12484.92,16716.98 12488.34,16720.75 12439.92,16748.35 12453.31,16756.02 12403.29,16784.74 12417.15,16792.65 12367.14,16821.37 12380.53,16829.1 12330.45,16857.82 12343.96,16865.49 12312.35,16883.59 6942.19,10952.95 6942.19,10899.4 6978.58,10920.22 6978.58,10862.83 7015.14,10883.77 7015.14,10826.44 7051.53,10847.32 7051.53,10790.11 7087.86,10810.93 "/>
   <path class="fil116" d="M7270.35 10600.97l5384.55 5946.56 -32.56 18.58 13.39 7.67 -49.96 28.72 13.39 7.72 -50.07 28.67 13.74 7.9 -50.01 28.72 13.62 7.73 -47.42 27.19 -5391.16 -5953.82 0 -3.06 36.63 20.87 0 -57.38 36.57 21.05 0 -57.5 36.15 20.76 0 -57.15 36.57 20.94 0 -57.39 36.57 20.88 0 -27.66zm5217.99 6119.78l-3.42 -3.77 4.95 2.89 -1.53 0.88z"/>
   <polygon class="fil116" points="7452.65,10445.03 12821.28,16374.01 12804.41,16383.63 12818.21,16391.53 12768.25,16420.25 12781.64,16427.92 12731.63,16456.64 12745.08,16464.37 12695,16493.03 12708.69,16500.94 12658.61,16529.66 12672.35,16537.56 12654.9,16547.53 7270.35,10600.97 7270.35,10571.3 7306.91,10592.18 7306.91,10534.79 7343.13,10555.55 7343.13,10498.34 7379.69,10519.22 7379.69,10461.95 7416.26,10482.89 7416.26,10425.33 7452.65,10446.21 "/>
   <polygon class="fil117" points="7598.51,10248.98 12987.77,16200.79 12986.83,16201.32 12989.9,16203.09 12996.98,16210.94 12950.26,16237.77 12964.12,16245.67 12913.99,16274.4 12927.5,16282.06 12877.54,16310.79 12890.93,16318.51 12840.86,16347.41 12854.36,16355.08 12821.28,16374.01 7452.65,10445.03 7452.65,10388.88 7488.98,10409.7 7488.98,10352.43 7525.55,10373.37 7525.55,10316.1 7561.94,10336.86 7561.94,10279.47 7598.51,10300.41 "/>
   <path class="fil118" d="M7780.75 10093.04l5382.9 5944.73 -31.08 17.93 13.56 7.73 -49.83 28.66 13.5 7.73 -49.95 28.72 13.56 7.67 -50.07 28.96 13.51 7.67 -49.08 27.95 -5389.26 -5951.81 0 -5.84 36.39 20.82 0 -57.33 36.56 20.94 0 -57.39 36.39 20.82 0 -57.21 36.33 20.82 0 -57.38 36.57 20.93 0 -25.12zm5216.23 6117.9l-7.08 -7.85 10.38 5.96 -3.3 1.89z"/>
   <polygon class="fil119" points="7960.4,9934.27 13330.21,15864.55 13315.05,15873.22 13328.61,15881.13 13278.54,15909.85 13292.05,15917.57 13242.09,15946.24 13255.72,15953.96 13205.58,15982.92 13219.09,15990.59 13169.25,16019.08 13182.76,16026.8 13163.65,16037.77 7780.75,10093.04 7780.75,10060.78 7817.32,10081.77 7817.32,10024.33 7853.53,10044.97 7853.53,9987.88 7890.1,10008.82 7890.1,9951.37 7926.66,9972.25 7926.66,9914.98 "/>
   <polygon class="fil120" points="8108.91,9741.05 13505.91,15701.36 13460.67,15727.37 13474.53,15735.27 13424.51,15763.99 13437.96,15771.72 13387.95,15800.38 13401.39,15808.11 13351.26,15836.83 13365,15844.56 13330.21,15864.55 7960.4,9934.27 7963.05,9935.8 7963.05,9878.47 7999.62,9899.41 7999.62,9842.02 8035.95,9862.84 8035.95,9805.58 8072.34,9826.4 8072.34,9769.07 8108.91,9790.01 "/>
   <polygon class="fil120" points="8291.39,9585.41 13672.58,15528.31 13643.09,15545.3 13656.6,15553.02 13606.7,15581.51 13620.38,15589.41 13570.31,15618.14 13583.88,15625.86 13533.74,15654.53 13547.25,15662.43 13497.29,15690.98 13510.68,15698.64 13505.91,15701.36 8108.91,9741.05 8108.91,9732.62 8145.3,9753.44 8145.3,9696.23 8181.87,9717.17 8181.87,9659.78 8218.2,9680.6 8218.2,9623.21 8254.82,9644.09 8254.82,9586.82 8291.39,9607.76 "/>
   <polygon class="fil120" points="8466.03,9421.09 13839.2,15355.03 13825.57,15362.82 13839.08,15370.6 13788.95,15399.21 13802.51,15406.93 13752.32,15435.66 13766.06,15443.56 13716.11,15472.11 13729.67,15480.01 13679.72,15508.67 13693.22,15516.4 13672.58,15528.31 8291.39,9585.41 8291.39,9550.31 8327.55,9571.08 8327.55,9513.87 8364.11,9534.8 8364.11,9477.42 8400.5,9498.24 8400.5,9440.91 8437.07,9461.85 8437.07,9404.46 "/>
   <polygon class="fil121" points="8619.31,9233.13 14015.01,15192.01 13971.25,15216.96 13984.93,15224.75 13934.8,15253.53 13948.31,15261.26 13898.41,15289.92 13911.92,15297.65 13861.78,15326.43 13875.53,15334.21 13839.2,15355.03 8466.03,9421.09 8473.64,9425.46 8473.64,9368.07 8510.03,9388.95 8510.03,9331.56 8546.42,9352.32 8546.42,9295.05 8582.75,9315.87 8582.75,9258.66 8619.31,9279.6 "/>
   <polygon class="fil122" points="8801.62,9077.3 14181.57,15018.73 14153.67,15034.72 14167.24,15042.44 14117.28,15071.05 14130.79,15078.77 14080.66,15107.56 14094.16,15115.34 14044.27,15144.06 14057.77,15151.85 14007.82,15180.57 14021.38,15188.36 14015.01,15192.01 8619.31,9233.13 8619.31,9222.21 8655.88,9243.09 8655.88,9185.71 8692.27,9206.58 8692.27,9149.26 8728.84,9170.19 8728.84,9112.81 8765.23,9133.63 8765.23,9076.42 8801.62,9097.24 "/>
   <polygon class="fil122" points="8971.71,8907.91 14348.07,14845.45 14335.98,14852.41 14349.48,14860.14 14299.35,14888.92 14312.86,14896.65 14262.9,14925.31 14276.47,14933.1 14226.51,14961.76 14240.02,14969.49 14189.89,14998.21 14203.63,15006.05 14181.57,15018.73 8801.62,9077.3 8801.62,9039.91 8838.13,9060.85 8838.13,9003.34 8874.58,9024.22 8874.58,8967.01 8911.08,8987.89 8911.08,8930.5 8947.47,8951.32 8947.47,8894.05 "/>
   <polygon class="fil123" points="9129.72,8725.26 14523.88,14682.38 14481.83,14706.56 14495.34,14714.28 14445.21,14743.01 14458.71,14750.73 14408.76,14779.4 14422.32,14787.24 14372.37,14815.85 14386.11,14823.69 14348.07,14845.45 8971.71,8907.91 8984.04,8914.99 8984.04,8857.55 9020.43,8878.43 9020.43,8821.1 9056.82,8841.92 9056.82,8784.65 9093.39,8805.53 9093.39,8748.26 9129.72,8769.14 "/>
   <polygon class="fil124" points="9312.02,8569.38 14690.44,14509.15 14664.08,14524.31 14677.58,14532.04 14627.69,14560.64 14641.19,14568.37 14591.06,14597.15 14604.57,14604.94 14554.85,14633.6 14568.35,14641.33 14518.04,14670.11 14531.73,14677.89 14523.88,14682.38 9129.72,8725.26 9129.72,8711.69 9166.35,8732.57 9166.35,8675.24 9202.85,8696.24 9202.85,8638.85 9239.07,8659.55 9239.07,8602.34 9275.63,8623.28 9275.63,8565.78 9312.02,8586.6 "/>
   <polygon class="fil124" points="9801.31,8752.5 14856.94,14335.87 14846.32,14341.95 14859.89,14349.68 14809.93,14378.28 14823.44,14386.12 14773.54,14414.79 14787.05,14422.57 14737.09,14451.36 14750.66,14459.08 14700.47,14487.75 14714.21,14495.53 14690.44,14509.15 9312.02,8569.38 9312.02,8529.45 9348.59,8550.32 9348.59,8492.94 "/>
   <polygon class="fil124" points="10474.09,9138.35 15032.81,14172.86 14992.18,14196.15 15005.74,14203.88 14955.79,14232.54 14969.12,14240.21 14919.16,14268.99 14932.9,14276.84 14882.95,14305.44 14896.51,14313.17 14856.94,14335.87 9801.31,8752.5 "/>
   <polygon class="fil125" points="11146.86,9524.13 15199.25,13999.46 15174.48,14013.67 15188.22,14021.52 15138.03,14050.3 15151.54,14057.96 15101.64,14086.75 15114.97,14094.47 15065.02,14123.2 15078.52,14130.92 15028.63,14159.53 15042.37,14167.37 15032.81,14172.86 10474.09,9138.35 "/>
   <polygon class="fil126" points="11819.64,9909.97 15365.87,13826.3 15356.96,13831.43 15370.23,13839.15 15320.1,13867.88 15333.84,13875.72 15284.12,13904.38 15297.45,13912.05 15247.26,13940.83 15261,13948.68 15210.87,13977.34 15224.38,13985.07 15199.25,13999.46 11146.86,9524.13 "/>
   <polygon class="fil126" points="12492.35,10295.69 15541.63,13663.28 15502.58,13685.63 15516.09,13693.36 15466.13,13722.02 15479.7,13729.81 15429.74,13758.47 15443.48,13766.31 15393.35,13795.04 15406.86,13802.76 15365.87,13826.3 11819.64,9909.97 "/>
   <polygon class="fil127" points="13165.24,10681.53 15708.24,13490 15685.06,13503.33 15698.33,13510.99 15648.2,13539.72 15661.94,13547.56 15612.22,13576.22 15625.73,13583.95 15575.6,13612.67 15589.16,13620.4 15539.21,13649.06 15552.71,13656.91 15541.63,13663.28 12492.35,10295.69 "/>
   <polygon class="fil127" points="13837.9,11067.31 15874.68,13316.66 15867.31,13320.9 15880.81,13328.75 15830.68,13357.53 15844.25,13365.26 15794.29,13393.98 15807.8,13401.71 15757.9,13430.31 15771.59,13438.15 15721.45,13466.88 15735.02,13474.6 15708.24,13490 13165.24,10681.53 "/>
   <polygon class="fil128" points="14510.67,11453.1 16050.56,13153.7 16013.16,13175.11 16026.67,13182.83 15976.54,13211.62 15990.28,13219.4 15940.15,13248.06 15953.65,13255.79 15903.76,13284.45 15917.26,13292.24 15874.68,13316.66 13837.9,11067.31 "/>
   <polygon class="fil128" points="15183.45,11838.88 16217.05,12980.36 16195.41,12992.74 16208.97,13000.59 16159.02,13029.31 16172.52,13037.04 16122.39,13065.7 16136.13,13073.55 16086,13102.27 16099.51,13109.99 16049.61,13138.66 16063.12,13146.5 16050.56,13153.7 14510.67,11453.1 "/>
   <polygon class="fil129" points="15856.28,12224.72 16383.55,12807.02 16377.48,12810.5 16391.22,12818.34 16341.5,12846.95 16355.01,12854.67 16304.87,12883.46 16318.38,12891.18 16268.25,12919.91 16281.81,12927.63 16231.86,12956.3 16245.36,12964.14 16217.05,12980.36 15183.45,11838.88 "/>
   <polygon class="fil129" points="16528.94,12610.44 16559.43,12644.12 16523.57,12664.76 16536.9,12672.43 16487.12,12701.09 16500.86,12708.94 16450.73,12737.66 16464.24,12745.39 16414.34,12774.05 16427.61,12781.72 16383.55,12807.02 15856.28,12224.72 "/>
   <polygon class="fil130" points="16559.43,12644.12 16528.94,12610.44 16573.46,12635.98 "/>
   <polygon class="fil131" points="15402.2,13307.63 10695.14,9265.09 16573.46,12635.98 "/>
   <polygon class="fil131" points="15370.41,13325.86 10535.6,9173.62 10695.14,9265.09 15402.2,13307.63 "/>
   <polygon class="fil131" points="15338.62,13344.14 10376.01,9082.08 10535.6,9173.62 15370.41,13325.86 "/>
   <polygon class="fil131" points="15306.83,13362.37 10216.41,8990.6 10376.01,9082.08 15338.62,13344.14 "/>
   <polygon class="fil131" points="15274.98,13380.59 10056.87,8899.07 10216.41,8990.6 15306.83,13362.37 "/>
   <polygon class="fil131" points="15243.19,13398.82 9897.27,8807.59 10056.87,8899.07 15274.98,13380.59 "/>
   <polygon class="fil131" points="15211.4,13417.1 9737.68,8716.06 9897.27,8807.59 15243.19,13398.82 "/>
   <polygon class="fil131" points="15179.61,13435.32 9577.96,8624.46 9737.68,8716.06 15211.4,13417.1 "/>
   <polygon class="fil131" points="15147.82,13453.55 9418.54,8533.04 9577.96,8624.46 15179.61,13435.32 "/>
   <polygon class="fil131" points="15115.97,13471.77 9348.59,8518.54 9348.59,8494.47 9349.48,8493.41 9418.54,8533.04 15147.82,13453.55 "/>
   <polygon class="fil131" points="15084.24,13490 9348.59,8564.13 9348.59,8518.54 15115.97,13471.77 "/>
   <polygon class="fil131" points="15052.39,13508.22 9348.59,8609.6 9348.59,8564.13 15084.24,13490 "/>
   <polygon class="fil131" points="15020.61,13526.45 9348.59,8655.19 9348.59,8609.6 15052.39,13508.22 "/>
   <polygon class="fil131" points="14988.82,13544.73 9348.59,8700.72 9348.59,8655.19 15020.61,13526.45 "/>
   <polygon class="fil131" points="14957.03,13562.95 9348.59,8746.25 9348.59,8700.72 14988.82,13544.73 "/>
   <polygon class="fil131" points="14925.24,13581.18 9348.59,8791.79 9348.59,8746.25 14957.03,13562.95 "/>
   <polygon class="fil131" points="14893.45,13599.4 9348.59,8837.38 9348.59,8791.79 14925.24,13581.18 "/>
   <polygon class="fil131" points="14861.66,13617.63 9348.59,8882.91 9348.59,8837.38 14893.45,13599.4 "/>
   <polygon class="fil27" points="14829.81,13635.91 9348.59,8928.44 9348.59,8882.91 14861.66,13617.63 "/>
   <polygon class="fil27" points="14798.02,13654.14 9348.59,8974.03 9348.59,8928.44 14829.81,13635.91 "/>
   <polygon class="fil27" points="14766.23,13672.36 9348.59,9019.56 9348.59,8974.03 14798.02,13654.14 "/>
   <polygon class="fil27" points="14734.44,13690.58 9348.59,9065.09 9348.59,9019.56 14766.23,13672.36 "/>
   <polygon class="fil27" points="14702.65,13708.81 9348.59,9110.63 9348.59,9065.09 14734.44,13690.58 "/>
   <polygon class="fil27" points="14670.8,13727.09 9348.59,9156.22 9348.59,9110.63 14702.65,13708.81 "/>
   <polygon class="fil27" points="14639.01,13745.32 9348.59,9201.69 9348.59,9156.22 14670.8,13727.09 "/>
   <polygon class="fil27" points="14607.22,13763.54 9348.59,9247.22 9348.59,9201.69 14639.01,13745.32 "/>
   <polygon class="fil25" points="14575.43,13781.77 9348.59,9292.81 9348.59,9247.22 14607.22,13763.54 "/>
   <polygon class="fil25" points="14543.64,13799.99 9348.59,9338.34 9348.59,9292.81 14575.43,13781.77 "/>
   <polygon class="fil25" points="14511.85,13818.22 9348.59,9383.93 9348.59,9338.34 14543.64,13799.99 "/>
   <polygon class="fil25" points="14480.06,13836.44 9348.59,9429.47 9348.59,9383.93 14511.85,13818.22 "/>
   <polygon class="fil25" points="14448.21,13854.72 9348.59,9475.06 9348.59,9429.47 14480.06,13836.44 "/>
   <polygon class="fil25" points="14416.42,13872.95 9348.59,9520.53 9348.59,9475.06 14448.21,13854.72 "/>
   <polygon class="fil25" points="14384.63,13891.17 9348.59,9566.06 9348.59,9520.53 14416.42,13872.95 "/>
   <polygon class="fil25" points="14352.84,13909.4 9348.59,9611.65 9348.59,9566.06 14384.63,13891.17 "/>
   <polygon class="fil25" points="14321.05,13927.68 9348.59,9657.13 9348.59,9611.65 14352.84,13909.4 "/>
   <polygon class="fil25" points="14289.27,13945.9 9348.59,9702.72 9348.59,9657.13 14321.05,13927.68 "/>
   <polygon class="fil25" points="14257.48,13964.13 9348.59,9748.31 9348.59,9702.72 14289.27,13945.9 "/>
   <polygon class="fil25" points="14225.63,13982.35 9348.59,9793.84 9348.59,9748.31 14257.48,13964.13 "/>
   <polygon class="fil132" points="14193.84,14000.58 9348.59,9839.37 9348.59,9793.84 14225.63,13982.35 "/>
   <polygon class="fil132" points="14162.05,14018.8 9348.59,9884.9 9348.59,9839.37 14193.84,14000.58 "/>
   <polygon class="fil132" points="14130.26,14037.09 9348.59,9930.43 9348.59,9884.9 14162.05,14018.8 "/>
   <polygon class="fil132" points="14098.47,14055.31 9348.59,9975.97 9348.59,9930.43 14130.26,14037.09 "/>
   <polygon class="fil133" points="14066.62,14073.54 9348.59,10021.56 9348.59,9975.97 14098.47,14055.31 "/>
   <polygon class="fil133" points="14034.89,14091.76 9348.59,10067.03 9348.59,10021.56 14066.62,14073.54 "/>
   <polygon class="fil133" points="14003.04,14109.98 9348.59,10112.62 9348.59,10067.03 14034.89,14091.76 "/>
   <polygon class="fil133" points="13971.25,14128.21 9348.59,10158.21 9348.59,10112.62 14003.04,14109.98 "/>
   <polygon class="fil133" points="13939.46,14146.49 9348.59,10203.68 9348.59,10158.21 13971.25,14128.21 "/>
   <polygon class="fil133" points="13907.67,14164.72 9348.59,10249.28 9348.59,10203.68 13939.46,14146.49 "/>
   <polygon class="fil133" points="13875.82,14182.94 9348.59,10294.81 9348.59,10249.28 13907.67,14164.72 "/>
   <polygon class="fil133" points="13844.03,14201.17 9348.59,10340.34 9348.59,10294.81 13875.82,14182.94 "/>
   <polygon class="fil23" points="13812.24,14219.39 9348.59,10385.87 9348.59,10340.34 13844.03,14201.17 "/>
   <polygon class="fil23" points="13780.45,14237.67 9348.59,10431.46 9348.59,10385.87 13812.24,14219.39 "/>
   <polygon class="fil23" points="13748.66,14255.9 9348.59,10476.99 9348.59,10431.46 13780.45,14237.67 "/>
   <polygon class="fil23" points="13716.87,14274.12 9348.59,10522.53 9348.59,10476.99 13748.66,14255.9 "/>
   <polygon class="fil134" points="13685.08,14292.35 9348.59,10568.12 9348.59,10522.53 13716.87,14274.12 "/>
   <polygon class="fil134" points="13653.24,14310.57 9348.59,10613.65 9348.59,10568.12 13685.08,14292.35 "/>
   <polygon class="fil134" points="13621.45,14328.86 9348.59,10659.18 9348.59,10613.65 13653.24,14310.57 "/>
   <polygon class="fil134" points="13589.66,14347.08 9348.59,10704.71 9348.59,10659.18 13621.45,14328.86 "/>
   <polygon class="fil134" points="13557.87,14365.3 9348.59,10750.24 9348.59,10704.71 13589.66,14347.08 "/>
   <polygon class="fil134" points="13526.08,14383.53 9348.59,10795.77 9348.59,10750.24 13557.87,14365.3 "/>
   <polygon class="fil134" points="13494.23,14401.75 9348.59,10841.37 9348.59,10795.77 13526.08,14383.53 "/>
   <polygon class="fil134" points="13462.44,14419.98 9348.59,10886.9 9348.59,10841.37 13494.23,14401.75 "/>
   <polygon class="fil135" points="13430.65,14438.26 9348.59,10932.43 9348.59,10886.9 13462.44,14419.98 "/>
   <polygon class="fil135" points="13398.86,14456.49 9348.59,10978.02 9348.59,10932.43 13430.65,14438.26 "/>
   <polygon class="fil135" points="13367.07,14474.71 9348.59,11023.55 9348.59,10978.02 13398.86,14456.49 "/>
   <polygon class="fil135" points="13335.28,14492.94 9348.59,11069.08 9348.59,11023.55 13367.07,14474.71 "/>
   <polygon class="fil135" points="13303.49,14511.16 9348.59,11114.62 9348.59,11069.08 13335.28,14492.94 "/>
   <polygon class="fil136" points="13271.7,14529.44 9348.59,11160.15 9348.59,11114.62 13303.49,14511.16 "/>
   <polygon class="fil136" points="13239.85,14547.67 9348.59,11205.74 9348.59,11160.15 13271.7,14529.44 "/>
   <polygon class="fil136" points="13208.12,14565.89 9348.59,11251.21 9348.59,11205.74 13239.85,14547.67 "/>
   <polygon class="fil136" points="13176.27,14584.12 9348.59,11296.8 9348.59,11251.21 13208.12,14565.89 "/>
   <polygon class="fil136" points="13144.48,14602.34 9348.59,11342.39 9348.59,11296.8 13176.27,14584.12 "/>
   <polygon class="fil136" points="13112.69,14620.63 9348.59,11387.87 9348.59,11342.39 13144.48,14602.34 "/>
   <polygon class="fil136" points="13080.9,14638.85 9348.59,11433.46 9348.59,11387.87 13112.69,14620.63 "/>
   <polygon class="fil136" points="13049.05,14657.07 9348.59,11478.99 9348.59,11433.46 13080.9,14638.85 "/>
   <polygon class="fil137" points="13017.26,14675.3 9348.59,11524.52 9348.59,11478.99 13049.05,14657.07 "/>
   <polygon class="fil137" points="12985.53,14693.52 9348.59,11570.05 9348.59,11524.52 13017.26,14675.3 "/>
   <polygon class="fil137" points="12953.68,14711.81 9348.59,11615.64 9348.59,11570.05 12985.53,14693.52 "/>
   <polygon class="fil137" points="12921.89,14730.03 9348.59,11661.17 9348.59,11615.64 12953.68,14711.81 "/>
   <polygon class="fil138" points="12890.11,14748.26 9348.59,11706.71 9348.59,11661.17 12921.89,14730.03 "/>
   <polygon class="fil138" points="12858.32,14766.48 9348.59,11752.3 9348.59,11706.71 12890.11,14748.26 "/>
   <polygon class="fil138" points="12826.47,14784.7 9348.59,11797.77 9348.59,11752.3 12858.32,14766.48 "/>
   <polygon class="fil138" points="12794.68,14802.93 9348.59,11843.36 9348.59,11797.77 12826.47,14784.7 "/>
   <polygon class="fil139" points="12762.89,14821.15 9348.59,11888.89 9348.59,11843.36 12794.68,14802.93 "/>
   <polygon class="fil139" points="12731.1,14839.44 9348.59,11934.48 9348.59,11888.89 12762.89,14821.15 "/>
   <polygon class="fil139" points="12699.31,14857.66 9348.59,11979.96 9348.59,11934.48 12731.1,14839.44 "/>
   <polygon class="fil139" points="12667.52,14875.89 9348.59,12025.49 9348.59,11979.96 12699.31,14857.66 "/>
   <polygon class="fil139" points="12635.67,14894.11 9348.59,12071.08 9348.59,12025.49 12667.52,14875.89 "/>
   <polygon class="fil139" points="12603.88,14912.39 9348.59,12116.61 9348.59,12071.08 12635.67,14894.11 "/>
   <polygon class="fil139" points="12572.09,14930.62 9348.59,12162.2 9348.59,12116.61 12603.88,14912.39 "/>
   <polygon class="fil139" points="12540.3,14948.84 9348.59,12207.73 9348.59,12162.2 12572.09,14930.62 "/>
   <polygon class="fil140" points="12508.51,14967.07 9348.59,12253.27 9348.59,12207.73 12540.3,14948.84 "/>
   <polygon class="fil140" points="12476.72,14985.29 9348.59,12298.8 9348.59,12253.27 12508.51,14967.07 "/>
   <polygon class="fil140" points="12444.87,15003.52 9348.59,12344.33 9348.59,12298.8 12476.72,14985.29 "/>
   <polygon class="fil140" points="12413.08,15021.8 9348.59,12389.86 9348.59,12344.33 12444.87,15003.52 "/>
   <polygon class="fil141" points="12381.29,15040.03 9348.59,12435.45 9348.59,12389.86 12413.08,15021.8 "/>
   <polygon class="fil141" points="12349.5,15058.25 9348.59,12480.98 9348.59,12435.45 12381.29,15040.03 "/>
   <polygon class="fil141" points="12317.71,15076.47 9348.59,12526.52 9348.59,12480.98 12349.5,15058.25 "/>
   <polygon class="fil141" points="12285.86,15094.7 9348.59,12572.11 9348.59,12526.52 12317.71,15076.47 "/>
   <polygon class="fil142" points="12254.13,15112.92 9348.59,12617.64 9348.59,12572.11 12285.86,15094.7 "/>
   <polygon class="fil142" points="12222.29,15131.21 9348.59,12663.11 9348.59,12617.64 12254.13,15112.92 "/>
   <polygon class="fil142" points="12190.5,15149.43 9348.59,12708.7 9348.59,12663.11 12222.29,15131.21 "/>
   <polygon class="fil142" points="12158.71,15167.66 9348.59,12754.23 9348.59,12708.7 12190.5,15149.43 "/>
   <polygon class="fil143" points="12126.92,15185.88 9348.59,12799.82 9348.59,12754.23 12158.71,15167.66 "/>
   <polygon class="fil143" points="12095.13,15204.1 9348.59,12845.36 9348.59,12799.82 12126.92,15185.88 "/>
   <polygon class="fil143" points="12063.28,15222.39 9348.59,12890.89 9348.59,12845.36 12095.13,15204.1 "/>
   <polygon class="fil143" points="12031.49,15240.61 9348.59,12936.48 9348.59,12890.89 12063.28,15222.39 "/>
   <polygon class="fil143" points="11999.7,15258.84 9348.59,12981.95 9348.59,12936.48 12031.49,15240.61 "/>
   <polygon class="fil143" points="11967.91,15277.06 9348.59,13027.54 9348.59,12981.95 11999.7,15258.84 "/>
   <polygon class="fil143" points="11936.12,15295.29 9348.59,13073.07 9348.59,13027.54 11967.91,15277.06 "/>
   <polygon class="fil143" points="11904.33,15313.57 9348.59,13118.61 9348.59,13073.07 11936.12,15295.29 "/>
   <polygon class="fil143" points="11872.54,15331.79 9348.59,13164.14 9348.59,13118.61 11904.33,15313.57 "/>
   <polygon class="fil143" points="11840.69,15350.02 9348.59,13209.73 9348.59,13164.14 11872.54,15331.79 "/>
   <polygon class="fil144" points="11808.9,15368.24 9348.59,13255.26 9348.59,13209.73 11840.69,15350.02 "/>
   <polygon class="fil144" points="11777.11,15386.47 9348.59,13300.79 9348.59,13255.26 11808.9,15368.24 "/>
   <polygon class="fil145" points="11745.32,15404.69 9348.59,13346.38 9348.59,13300.79 11777.11,15386.47 "/>
   <polygon class="fil145" points="11713.53,15422.98 9348.59,13391.86 9348.59,13346.38 11745.32,15404.69 "/>
   <polygon class="fil145" points="11681.74,15441.2 9348.59,13437.45 9348.59,13391.86 11713.53,15422.98 "/>
   <polygon class="fil145" points="11649.95,15459.42 9348.59,13482.98 9348.59,13437.45 11681.74,15441.2 "/>
   <polygon class="fil146" points="11618.1,15477.65 9348.59,13528.51 9348.59,13482.98 11649.95,15459.42 "/>
   <polygon class="fil146" points="11586.31,15495.87 9348.59,13574.04 9348.59,13528.51 11618.1,15477.65 "/>
   <polygon class="fil146" points="11554.52,15514.16 9348.59,13619.63 9348.59,13574.04 11586.31,15495.87 "/>
   <polygon class="fil146" points="11522.74,15532.38 9348.59,13665.16 9348.59,13619.63 11554.52,15514.16 "/>
   <polygon class="fil147" points="11490.89,15550.61 9348.59,13710.7 9348.59,13665.16 11522.74,15532.38 "/>
   <polygon class="fil147" points="11459.1,15568.83 9348.59,13756.29 9348.59,13710.7 11490.89,15550.61 "/>
   <polygon class="fil147" points="11427.31,15587.06 9348.59,13801.82 9348.59,13756.29 11459.1,15568.83 "/>
   <polygon class="fil147" points="11395.52,15605.28 9348.59,13847.35 9348.59,13801.82 11427.31,15587.06 "/>
   <polygon class="fil148" points="11363.73,15623.56 9348.59,13892.88 9348.59,13847.35 11395.52,15605.28 "/>
   <polygon class="fil148" points="11331.94,15641.79 9348.59,13938.41 9348.59,13892.88 11363.73,15623.56 "/>
   <polygon class="fil148" points="11300.15,15660.01 9348.59,13984.01 9348.59,13938.41 11331.94,15641.79 "/>
   <polygon class="fil148" points="11268.36,15678.24 9348.59,14029.54 9348.59,13984.01 11300.15,15660.01 "/>
   <polygon class="fil148" points="11236.51,15696.46 9348.59,14075.07 9348.59,14029.54 11268.36,15678.24 "/>
   <polygon class="fil148" points="11204.72,15714.69 9348.59,14120.6 9348.59,14075.07 11236.51,15696.46 "/>
   <polygon class="fil148" points="11172.93,15732.97 9348.59,14166.13 9348.59,14120.6 11204.72,15714.69 "/>
   <polygon class="fil149" points="11141.14,15751.19 9348.59,14211.72 9348.59,14166.13 11172.93,15732.97 "/>
   <polygon class="fil149" points="11109.35,15769.42 9348.59,14257.26 9348.59,14211.72 11141.14,15751.19 "/>
   <polygon class="fil150" points="11077.56,15787.64 9348.59,14302.79 9348.59,14257.26 11109.35,15769.42 "/>
   <polygon class="fil150" points="11045.77,15805.87 9348.59,14348.32 9348.59,14302.79 11077.56,15787.64 "/>
   <polygon class="fil150" points="11013.92,15824.15 9348.59,14393.91 9348.59,14348.32 11045.77,15805.87 "/>
   <polygon class="fil150" points="10982.13,15842.38 9348.59,14439.44 9348.59,14393.91 11013.92,15824.15 "/>
   <polygon class="fil151" points="10950.34,15860.6 9348.59,14484.97 9348.59,14439.44 10982.13,15842.38 "/>
   <polygon class="fil151" points="10918.55,15878.82 9348.59,14530.56 9348.59,14484.97 10950.34,15860.6 "/>
   <polygon class="fil151" points="10886.71,15897.11 9348.59,14576.1 9348.59,14530.56 10918.55,15878.82 "/>
   <polygon class="fil151" points="10854.97,15915.33 9348.59,14621.63 9348.59,14576.1 10886.71,15897.11 "/>
   <polygon class="fil151" points="10823.13,15933.56 9348.59,14667.22 9348.59,14621.63 10854.97,15915.33 "/>
   <polygon class="fil151" points="10791.34,15951.78 9348.59,14712.69 9348.59,14667.22 10823.13,15933.56 "/>
   <polygon class="fil151" points="10759.55,15970.01 9348.59,14758.28 9348.59,14712.69 10791.34,15951.78 "/>
   <polygon class="fil151" points="10727.76,15988.29 9348.59,14803.81 9348.59,14758.28 10759.55,15970.01 "/>
   <polygon class="fil152" points="10695.97,16006.46 9348.59,14849.35 9348.59,14803.81 10727.76,15988.29 "/>
   <polygon class="fil152" points="10664.12,16024.74 9348.59,14894.94 9348.59,14849.35 10695.97,16006.46 "/>
   <polygon class="fil152" points="10632.33,16042.96 9348.59,14940.47 9348.59,14894.94 10664.12,16024.74 "/>
   <polygon class="fil152" points="10600.54,16061.19 9348.59,14986 9348.59,14940.47 10632.33,16042.96 "/>
   <polygon class="fil153" points="10568.75,16079.41 9348.59,15031.53 9348.59,14986 10600.54,16061.19 "/>
   <polygon class="fil153" points="10536.96,16097.64 9348.59,15077.06 9348.59,15031.53 10568.75,16079.41 "/>
   <polygon class="fil153" points="10505.17,16115.92 9348.59,15122.6 9348.59,15077.06 10536.96,16097.64 "/>
   <polygon class="fil153" points="10473.38,16134.15 9348.59,15168.19 9348.59,15122.6 10505.17,16115.92 "/>
   <polygon class="fil153" points="10441.53,16152.37 9348.59,15213.72 9348.59,15168.19 10473.38,16134.15 "/>
   <polygon class="fil153" points="10409.74,16170.59 9348.59,15259.25 9348.59,15213.72 10441.53,16152.37 "/>
   <polygon class="fil153" points="10377.95,16188.82 9348.59,15304.78 9348.59,15259.25 10409.74,16170.59 "/>
   <polygon class="fil153" points="10346.16,16207.1 9348.59,15350.37 9348.59,15304.78 10377.95,16188.82 "/>
   <polygon class="fil154" points="10314.37,16225.33 9348.59,15395.9 9348.59,15350.37 10346.16,16207.1 "/>
   <polygon class="fil154" points="10282.52,16243.55 9348.59,15441.44 9348.59,15395.9 10314.37,16225.33 "/>
   <polygon class="fil154" points="10250.79,16261.78 9348.59,15486.97 9348.59,15441.44 10282.52,16243.55 "/>
   <polygon class="fil154" points="10218.94,16280.06 9348.59,15532.56 9348.59,15486.97 10250.79,16261.78 "/>
   <polygon class="fil155" points="10187.15,16298.28 9348.59,15578.09 9348.59,15532.56 10218.94,16280.06 "/>
   <polygon class="fil155" points="10155.36,16316.51 9348.59,15623.62 9348.59,15578.09 10187.15,16298.28 "/>
   <polygon class="fil155" points="10123.58,16334.73 9348.59,15669.15 9348.59,15623.62 10155.36,16316.51 "/>
   <polygon class="fil155" points="10091.79,16352.96 9348.59,15714.69 9348.59,15669.15 10123.58,16334.73 "/>
   <polygon class="fil156" points="10059.94,16371.18 9348.59,15760.28 9348.59,15714.69 10091.79,16352.96 "/>
   <polygon class="fil156" points="10028.15,16389.41 9348.59,15805.81 9348.59,15760.28 10059.94,16371.18 "/>
   <polygon class="fil156" points="9996.36,16407.69 9348.59,15851.34 9348.59,15805.81 10028.15,16389.41 "/>
   <polygon class="fil156" points="9964.57,16425.91 9348.59,15896.87 9348.59,15851.34 9996.36,16407.69 "/>
   <polygon class="fil157" points="9932.78,16444.14 9348.59,15942.46 9348.59,15896.87 9964.57,16425.91 "/>
   <polygon class="fil157" points="9900.99,16462.36 9348.59,15988 9348.59,15942.46 9932.78,16444.14 "/>
   <polygon class="fil157" points="9869.2,16480.59 9348.59,16033.47 9348.59,15988 9900.99,16462.36 "/>
   <polygon class="fil157" points="9837.35,16498.87 9348.59,16079.06 9348.59,16033.47 9869.2,16480.59 "/>
   <polygon class="fil157" points="9805.56,16517.1 9348.59,16124.65 9348.59,16079.06 9837.35,16498.87 "/>
   <polygon class="fil157" points="9773.77,16535.32 9348.59,16170.18 9348.59,16124.65 9805.56,16517.1 "/>
   <polygon class="fil157" points="9741.98,16553.55 9348.59,16215.71 9348.59,16170.18 9773.77,16535.32 "/>
   <polygon class="fil157" points="9710.19,16571.77 9348.59,16261.25 9348.59,16215.71 9741.98,16553.55 "/>
   <polygon class="fil158" points="9678.34,16590.05 9348.59,16306.78 9348.59,16261.25 9710.19,16571.77 "/>
   <polygon class="fil158" points="9646.61,16608.28 9348.59,16352.31 9348.59,16306.78 9678.34,16590.05 "/>
   <polygon class="fil158" points="9614.76,16626.5 9348.59,16397.9 9348.59,16352.31 9646.61,16608.28 "/>
   <polygon class="fil158" points="9582.97,16644.73 9348.59,16443.43 9348.59,16397.9 9614.76,16626.5 "/>
   <polygon class="fil159" points="9551.18,16662.95 9348.59,16489.02 9348.59,16443.43 9582.97,16644.73 "/>
   <polygon class="fil159" points="9519.39,16681.18 9348.59,16534.55 9348.59,16489.02 9551.18,16662.95 "/>
   <polygon class="fil159" points="9487.6,16699.46 9348.59,16580.09 9348.59,16534.55 9519.39,16681.18 "/>
   <polygon class="fil159" points="9455.76,16717.68 9348.59,16625.62 9348.59,16580.09 9487.6,16699.46 "/>
   <polygon class="fil160" points="9423.97,16735.91 9348.59,16671.15 9348.59,16625.62 9455.76,16717.68 "/>
   <polygon class="fil160" points="9392.18,16754.13 9348.59,16716.74 9348.59,16671.15 9423.97,16735.91 "/>
   <polygon class="fil160" points="9360.39,16772.36 9348.59,16762.27 9348.59,16716.74 9392.18,16754.13 "/>
   <polygon class="fil160" points="9348.59,16762.27 9360.39,16772.36 9348.59,16779.14 "/>
  </g>
 </g>
</svg>
